<svg viewBox="0 0 558 85" fill="none" xmlns="http://www.w3.org/2000/svg">
    <path d="M2 18.7363V61.7363H22.375H32.5625M2 18.7363V11.2363H83.5V18.7363M2 18.7363H12.5M18 18.7363H23.5M28.5 18.7363H35.75H43H83.5M83.5 18.7363V61.7363H63.125H52.9375M33 30.2363L24 40.2363L33 50.2363M49.75 24.4863L42.75 40.2363L35.75 55.9863M52 30.2363L61.5 40.2363L52 50.2363M11 73.7363H27.125M75.5 73.7363H59.375M52.9375 61.7363H42.75H32.5625M52.9375 61.7363L59.375 73.7363M32.5625 61.7363L27.125 73.7363M27.125 73.7363H43.25H59.375"
          stroke="currentColor" stroke-width="4" stroke-linecap="round" stroke-linejoin="round"/>
    <path d="M115.5 2.73633V82.2363" stroke="currentColor" stroke-width="4" stroke-linecap="round"/>
    <path d="M189.773 69.4863C188.975 67.0923 187.904 64.0893 186.56 60.4773H166.463L163.313 69.4863H147.5L165.14 23.7483H188.324L206.09 69.4863H189.773ZM182.969 50.6493C181.373 46.2393 179.735 41.8293 178.055 37.4193L176.543 33.3243C175.073 37.1463 172.91 42.9213 170.054 50.6493H182.969ZM206.929 64.0683C208.357 61.9263 209.533 59.9313 210.457 58.0833C211.423 56.2353 212.347 54.0933 213.229 51.6573C216.211 53.3793 219.676 54.7233 223.624 55.6893C227.572 56.6553 231.247 57.1383 234.649 57.1383C238.135 57.1383 240.592 56.8443 242.02 56.2563C243.448 55.6263 244.162 54.9543 244.162 54.2403C244.162 51.6783 240.256 50.3973 232.444 50.3973C223.876 50.3973 217.66 49.5153 213.796 47.7513C209.932 45.9453 208 43.0473 208 39.0573C208 33.3873 210.352 29.2083 215.056 26.5203C219.76 23.8323 225.871 22.4883 233.389 22.4883C237.757 22.4883 242.23 23.0553 246.808 24.1893C251.428 25.2813 255.586 26.7933 259.282 28.7253C258.064 31.4973 256.783 34.8783 255.439 38.8683C255.187 39.7083 254.977 40.3383 254.809 40.7583C252.667 39.0363 249.433 37.6083 245.107 36.4743C240.781 35.2983 236.959 34.7103 233.641 34.7103C229.651 34.7103 226.963 34.9833 225.577 35.5293C224.191 36.0333 223.498 36.7893 223.498 37.7973C223.498 38.8053 224.443 39.6243 226.333 40.2543C228.265 40.8423 231.037 41.1363 234.649 41.1363C243.553 41.1363 250.021 42.1653 254.053 44.2233C258.085 46.2393 260.101 49.3473 260.101 53.5473C260.101 59.4273 257.959 63.6693 253.675 66.2733C249.391 68.8353 242.902 70.1163 234.208 70.1163C229.546 70.1163 224.8 69.6123 219.97 68.6043C215.14 67.5543 210.793 66.0423 206.929 64.0683ZM298.016 69.4863C296.042 65.9163 292.766 60.4563 288.188 53.1063L280.817 60.4143V69.4863H265.13C265.466 61.3383 265.634 53.7153 265.634 46.6173C265.634 39.5193 265.466 31.8963 265.13 23.7483H280.817V42.2073C288.545 34.5633 294.047 28.4103 297.323 23.7483H317.735L297.89 43.4043C300.83 47.5203 304.127 51.9933 307.781 56.8233C311.477 61.6533 314.816 65.8743 317.798 69.4863H298.016ZM362.592 69.4863C361.794 67.0923 360.723 64.0893 359.379 60.4773H339.282L336.132 69.4863H320.319L337.959 23.7483H361.143L378.909 69.4863H362.592ZM355.788 50.6493C354.192 46.2393 352.554 41.8293 350.874 37.4193L349.362 33.3243C347.892 37.1463 345.729 42.9213 342.873 50.6493H355.788ZM432.86 38.9943C432.86 42.6483 431.957 45.7353 430.151 48.2553C428.387 50.7753 425.342 52.6023 421.016 53.7363C421.52 54.4083 421.877 54.9333 422.087 55.3113L432.293 69.4863H415.157C413.309 66.0423 410.39 61.1703 406.4 54.8703H397.139V69.4863H382.271C382.607 61.3383 382.775 53.7153 382.775 46.6173C382.775 39.5193 382.607 31.8963 382.271 23.7483H397.139V23.8113H410.054C418.538 23.8113 424.46 25.1763 427.82 27.9063C431.18 30.6363 432.86 34.3323 432.86 38.9943ZM397.139 35.9073V43.0893H405.644C409.214 43.0893 411.902 42.9843 413.708 42.7743C415.556 42.5223 416.837 42.1443 417.551 41.6403C418.265 41.1363 418.622 40.4013 418.622 39.4353C418.622 38.5113 418.286 37.7973 417.614 37.2933C416.942 36.7893 415.682 36.4323 413.834 36.2223C411.986 36.0123 409.256 35.9073 405.644 35.9073H397.139ZM465.923 70.1163C456.305 70.1163 449.228 68.0373 444.692 63.8793C440.156 59.6793 437.888 53.7993 437.888 46.2393C437.888 38.7633 440.135 32.9253 444.629 28.7253C449.165 24.5253 456.263 22.4253 465.923 22.4253C475.625 22.4253 482.723 24.5253 487.217 28.7253C491.753 32.9253 494.021 38.7633 494.021 46.2393C494.021 53.8413 491.774 59.7213 487.28 63.8793C482.786 68.0373 475.667 70.1163 465.923 70.1163ZM465.923 57.2643C470.585 57.2643 473.945 56.3823 476.003 54.6183C478.061 52.8123 479.09 50.0193 479.09 46.2393C479.09 42.5433 478.061 39.7923 476.003 37.9863C473.945 36.1803 470.585 35.2773 465.923 35.2773C461.303 35.2773 457.964 36.1803 455.906 37.9863C453.848 39.7923 452.819 42.5433 452.819 46.2393C452.819 49.9773 453.848 52.7493 455.906 54.5553C457.964 56.3613 461.303 57.2643 465.923 57.2643ZM549.455 23.7483L545.297 33.3873C541.643 41.9133 538.766 48.7383 536.666 53.8623C534.566 58.9863 532.634 64.1943 530.87 69.4863H512.033C510.311 64.2783 508.4 59.1333 506.3 54.0513C504.242 48.9273 501.47 42.3753 497.984 34.3953C497.396 33.0513 495.863 29.5023 493.385 23.7483H510.899C512.159 27.8223 514.028 33.0513 516.506 39.4353C518.69 45.0633 520.454 49.9353 521.798 54.0513C522.68 51.1533 523.73 48.0663 524.948 44.7903C526.208 41.4723 526.964 39.4563 527.216 38.7423C529.652 32.3163 531.437 27.3183 532.571 23.7483H549.455Z"
          fill="currentColor"/>
</svg>
