<svg viewBox="0 0 256 256" fill="none" xmlns="http://www.w3.org/2000/svg">
    <circle cx="128" cy="128" r="126" fill="white"/>
    <path
            d="M128.001 0C57.3173 0 0 58.757 0 131.241C0 189.226 36.6762 238.421 87.5349 255.774C93.932 256.989 96.2806 252.927 96.2806 249.461C96.2806 246.331 96.1619 235.993 96.1068 225.027C60.4968 232.966 52.9826 209.542 52.9826 209.542C47.16 194.372 38.7704 190.339 38.7704 190.339C27.1569 182.193 39.6458 182.361 39.6458 182.361C52.4993 183.287 59.2674 195.885 59.2674 195.885C70.6838 215.949 89.2116 210.148 96.5159 206.795C97.6647 198.313 100.982 192.523 104.643 189.246C76.2118 185.927 46.3248 174.674 46.3248 124.386C46.3248 110.058 51.3251 98.35 59.5132 89.1592C58.1842 85.8536 53.8029 72.5053 60.7532 54.4279C60.7532 54.4279 71.5019 50.9006 95.9626 67.8805C106.173 64.9727 117.123 63.5144 128.001 63.4644C138.879 63.5144 149.838 64.9727 160.067 67.8805C184.498 50.9006 195.232 54.4279 195.232 54.4279C202.199 72.5053 197.816 85.8536 196.487 89.1592C204.694 98.35 209.66 110.058 209.66 124.386C209.66 174.793 179.716 185.892 151.213 189.141C155.804 193.214 159.895 201.201 159.895 213.445C159.895 231.005 159.747 245.138 159.747 249.461C159.747 252.954 162.051 257.046 168.539 255.757C219.37 238.384 256 189.207 256 131.241C256 58.757 198.691 0 128.001 0Z"
            fill="currentColor"/>
</svg>
