<svg viewBox="0 0 256 256" fill="none" xmlns="http://www.w3.org/2000/svg">
    <path
            d="M128 256C198.709 256 256 198.709 256 128C256 57.2907 198.709 0 128 0C57.2907 0 0 57.2907 0 128C0 198.709 57.2907 256 128 256Z"
            fill="currentColor"/>
    <path
            d="M209.712 90.8616C210.898 86.9064 209.712 84 204.067 84H185.4C180.654 84 178.466 86.5107 177.279 89.2792C177.279 89.2792 167.786 112.417 154.339 127.447C149.988 131.798 148.01 133.182 145.637 133.182C144.451 133.182 142.733 131.798 142.733 127.843V90.8616C142.733 86.1153 141.356 84 137.4 84H108.067C105.101 84 103.317 86.2029 103.317 88.2906C103.317 92.79 110.04 93.8277 110.733 106.485V133.973C110.733 140 109.645 141.093 107.272 141.093C100.944 141.093 85.5506 117.851 76.4211 91.257C74.6319 86.088 72.8374 84 68.0667 84H49.4001C44.0667 84 43 86.5107 43 89.2792C43 94.2234 49.3284 118.746 72.4661 151.178C87.8912 173.327 109.624 185.333 129.4 185.333C141.266 185.333 142.733 182.667 142.733 178.073V161.333C142.733 156 143.857 154.936 147.615 154.936C150.383 154.936 155.13 156.32 166.204 166.999C178.861 179.655 180.948 185.333 188.067 185.333H206.733C212.067 185.333 214.733 182.667 213.195 177.404C211.512 172.159 205.469 164.55 197.451 155.529C193.1 150.387 186.574 144.85 184.596 142.081C181.827 138.522 182.618 136.939 184.596 133.775C184.596 133.775 207.339 101.738 209.712 90.8616Z"
            fill="white"/>
</svg>
