<svg xmlns="http://www.w3.org/2000/svg" version="1.1" xmlns:xlink="http://www.w3.org/1999/xlink" xmlns:svgjs="http://svgjs.dev/svgjs" width="466" height="466"><svg width="466" height="466" viewBox="0 0 466 466" fill="none" xmlns="http://www.w3.org/2000/svg">
<path d="M204.062 1.25867C153.662 7.79199 106.729 30.8587 70.062 66.8587C8.862 126.992 -14.338 217.925 10.462 300.059L12.862 308.059L45.7953 308.459L78.7287 308.725V205.392C78.7287 131.792 79.1287 100.992 80.1953 98.992C80.9953 97.392 82.9953 94.992 84.5953 93.792C87.262 91.6587 97.1287 91.392 233.662 91.392H379.929L383.662 94.592L387.395 97.792L387.795 203.259L388.062 308.725H420.729H453.395L454.862 305.125C457.262 298.859 462.462 276.592 464.195 265.392C466.595 249.925 466.329 212.325 463.529 196.192C455.262 147.392 433.262 103.792 399.529 69.6587C364.462 34.0587 320.062 10.8587 271.395 2.59198C254.329 -0.208008 221.129 -0.874664 204.062 1.25867Z" fill="black"></path>
<path d="M106.329 118.992C105.795 119.392 105.395 122.459 105.395 125.659V131.392H233.395H361.395V124.725V118.059H234.329C164.329 118.059 106.729 118.459 106.329 118.992Z" fill="black"></path>
<path d="M105.395 234.059V308.725H154.062C180.862 308.725 202.729 308.459 202.729 308.192C202.729 307.792 205.129 299.925 207.929 290.459C210.862 281.125 214.729 268.325 216.462 262.059C243.262 170.459 242.729 171.525 256.729 172.592C260.995 172.992 266.729 180.192 266.729 185.259C266.729 188.592 239.395 282.992 232.062 304.992L230.862 308.725H296.195H361.395V234.059V159.392H233.395H105.395V234.059ZM195.395 202.459C197.662 204.325 199.129 207.259 199.662 210.859C200.195 215.525 199.795 216.859 196.329 220.859C194.062 223.392 184.195 231.392 174.195 238.725C164.329 246.059 156.195 252.325 156.062 252.725C156.062 253.125 165.129 260.192 176.195 268.592C187.262 276.992 197.129 285.259 198.329 286.992C200.595 290.459 200.062 298.192 197.129 301.659C194.195 305.259 187.395 307.392 183.262 306.192C177.795 304.592 122.462 262.725 120.329 258.459C117.795 253.792 119.262 247.259 123.795 243.125C125.795 241.125 139.395 230.592 154.062 219.525C178.329 201.259 181.262 199.525 186.329 199.525C190.329 199.392 192.995 200.325 195.395 202.459ZM314.862 220.992C330.729 232.992 344.729 244.325 345.929 246.325C348.462 250.459 348.595 254.059 346.462 258.592C344.595 262.725 289.395 304.459 283.662 306.192C279.129 307.392 272.595 305.259 269.395 301.392C266.995 298.459 266.729 288.592 269.129 285.659C270.062 284.592 279.795 276.859 290.862 268.592C301.795 260.325 310.729 253.259 310.729 252.859C310.729 252.459 303.395 246.592 294.462 240.059C272.329 223.792 268.329 220.059 267.262 214.725C265.795 206.592 271.929 199.525 280.595 199.392C285.262 199.392 288.862 201.659 314.862 220.992Z" fill="black"></path>
<path d="M78.1953 406.192C80.3286 408.459 87.5286 414.325 94.062 419.259C163.795 471.392 255.929 480.325 334.195 442.725C350.862 434.725 372.729 420.459 385.129 409.525L393.529 402.059H233.929H74.1953L78.1953 406.192Z" fill="black"></path>
<path d="M135.167 373C134.673 371.518 134.01 369.659 133.178 367.423H120.737L118.787 373H108.998L119.918 344.686H134.27L145.268 373H135.167ZM130.955 361.339C129.967 358.609 128.953 355.879 127.913 353.149L126.977 350.614C126.067 352.98 124.728 356.555 122.96 361.339H130.955ZM145.787 369.646C146.671 368.32 147.399 367.085 147.971 365.941C148.569 364.797 149.141 363.471 149.687 361.963C151.533 363.029 153.678 363.861 156.122 364.459C158.566 365.057 160.841 365.356 162.947 365.356C165.105 365.356 166.626 365.174 167.51 364.81C168.394 364.42 168.836 364.004 168.836 363.562C168.836 361.976 166.418 361.183 161.582 361.183C156.278 361.183 152.43 360.637 150.038 359.545C147.646 358.427 146.45 356.633 146.45 354.163C146.45 350.653 147.906 348.066 150.818 346.402C153.73 344.738 157.513 343.906 162.167 343.906C164.871 343.906 167.64 344.257 170.474 344.959C173.334 345.635 175.908 346.571 178.196 347.767C177.442 349.483 176.649 351.576 175.817 354.046C175.661 354.566 175.531 354.956 175.427 355.216C174.101 354.15 172.099 353.266 169.421 352.564C166.743 351.836 164.377 351.472 162.323 351.472C159.853 351.472 158.189 351.641 157.331 351.979C156.473 352.291 156.044 352.759 156.044 353.383C156.044 354.007 156.629 354.514 157.799 354.904C158.995 355.268 160.711 355.45 162.947 355.45C168.459 355.45 172.463 356.087 174.959 357.361C177.455 358.609 178.703 360.533 178.703 363.133C178.703 366.773 177.377 369.399 174.725 371.011C172.073 372.597 168.056 373.39 162.674 373.39C159.788 373.39 156.85 373.078 153.86 372.454C150.87 371.804 148.179 370.868 145.787 369.646ZM202.175 373C200.953 370.79 198.925 367.41 196.091 362.86L191.528 367.384V373H181.817C182.025 367.956 182.129 363.237 182.129 358.843C182.129 354.449 182.025 349.73 181.817 344.686H191.528V356.113C196.312 351.381 199.718 347.572 201.746 344.686H214.382L202.097 356.854C203.917 359.402 205.958 362.171 208.22 365.161C210.508 368.151 212.575 370.764 214.421 373H202.175ZM242.15 373C241.656 371.518 240.993 369.659 240.161 367.423H227.72L225.77 373H215.981L226.901 344.686H241.253L252.251 373H242.15ZM237.938 361.339C236.95 358.609 235.936 355.879 234.896 353.149L233.96 350.614C233.05 352.98 231.711 356.555 229.943 361.339H237.938ZM285.649 354.124C285.649 356.386 285.09 358.297 283.972 359.857C282.88 361.417 280.995 362.548 278.317 363.25C278.629 363.666 278.85 363.991 278.98 364.225L285.298 373H274.69C273.546 370.868 271.739 367.852 269.269 363.952H263.536V373H254.332C254.54 367.956 254.644 363.237 254.644 358.843C254.644 354.449 254.54 349.73 254.332 344.686H263.536V344.725H271.531C276.783 344.725 280.449 345.57 282.529 347.26C284.609 348.95 285.649 351.238 285.649 354.124ZM263.536 352.213V356.659H268.801C271.011 356.659 272.675 356.594 273.793 356.464C274.937 356.308 275.73 356.074 276.172 355.762C276.614 355.45 276.835 354.995 276.835 354.397C276.835 353.825 276.627 353.383 276.211 353.071C275.795 352.759 275.015 352.538 273.871 352.408C272.727 352.278 271.037 352.213 268.801 352.213H263.536ZM306.117 373.39C300.163 373.39 295.782 372.103 292.974 369.529C290.166 366.929 288.762 363.289 288.762 358.609C288.762 353.981 290.153 350.367 292.935 347.767C295.743 345.167 300.137 343.867 306.117 343.867C312.123 343.867 316.517 345.167 319.299 347.767C322.107 350.367 323.511 353.981 323.511 358.609C323.511 363.315 322.12 366.955 319.338 369.529C316.556 372.103 312.149 373.39 306.117 373.39ZM306.117 365.434C309.003 365.434 311.083 364.888 312.357 363.796C313.631 362.678 314.268 360.949 314.268 358.609C314.268 356.321 313.631 354.618 312.357 353.5C311.083 352.382 309.003 351.823 306.117 351.823C303.257 351.823 301.19 352.382 299.916 353.5C298.642 354.618 298.005 356.321 298.005 358.609C298.005 360.923 298.642 362.639 299.916 363.757C301.19 364.875 303.257 365.434 306.117 365.434ZM357.827 344.686L355.253 350.653C352.991 355.931 351.21 360.156 349.91 363.328C348.61 366.5 347.414 369.724 346.322 373H334.661C333.595 369.776 332.412 366.591 331.112 363.445C329.838 360.273 328.122 356.217 325.964 351.277C325.6 350.445 324.651 348.248 323.117 344.686H333.959C334.739 347.208 335.896 350.445 337.43 354.397C338.782 357.881 339.874 360.897 340.706 363.445C341.252 361.651 341.902 359.74 342.656 357.712C343.436 355.658 343.904 354.41 344.06 353.968C345.568 349.99 346.673 346.896 347.375 344.686H357.827Z" fill="black"></path>
</svg><style>@media (prefers-color-scheme: light) { :root { filter: none; } }
@media (prefers-color-scheme: dark) { :root { filter: none; } }
</style></svg>