<?xml version="1.0" standalone="no"?>
<!DOCTYPE svg PUBLIC "-//W3C//DTD SVG 20010904//EN"
 "http://www.w3.org/TR/2001/REC-SVG-20010904/DTD/svg10.dtd">
<svg version="1.0" xmlns="http://www.w3.org/2000/svg"
 width="700.000000pt" height="700.000000pt" viewBox="0 0 700.000000 700.000000"
 preserveAspectRatio="xMidYMid meet">
<metadata>
Created by potrace 1.14, written by Peter Selinger 2001-2017
</metadata>
<g transform="translate(0.000000,700.000000) scale(0.100000,-0.100000)"
fill="#000000" stroke="none">
<path d="M3209 6996 c-2 -2 -40 -6 -84 -10 -44 -3 -89 -7 -100 -10 -11 -2 -42
-7 -68 -10 -54 -8 -68 -11 -142 -26 -27 -6 -59 -12 -70 -14 -69 -13 -365 -99
-400 -116 -11 -5 -56 -23 -100 -39 -286 -105 -613 -290 -889 -505 -475 -370
-841 -846 -1076 -1401 -40 -95 -143 -391 -154 -445 -3 -14 -12 -52 -21 -85
-23 -91 -68 -337 -79 -435 -27 -227 -27 -640 -1 -804 2 -11 6 -43 10 -71 3
-27 10 -75 15 -105 5 -30 12 -73 16 -95 3 -22 8 -43 10 -46 2 -3 5 -19 8 -35
8 -40 82 -313 95 -346 l11 -28 197 -1 c109 0 331 -1 493 -2 l294 -2 2 1375 c2
1459 6 1752 28 1785 7 11 26 32 41 47 27 27 40 31 165 43 30 3 1007 8 2170 10
l2115 5 58 -48 c56 -47 57 -48 57 -102 3 -212 9 -1897 10 -2446 l0 -670 492 0
492 1 14 35 c19 45 66 219 93 340 69 313 74 368 74 755 0 348 -7 441 -46 640
-11 55 -22 111 -25 125 -20 106 -107 387 -164 530 -86 216 -218 470 -342 654
-145 215 -236 326 -437 526 -218 218 -378 347 -609 493 -202 127 -322 189
-577 297 -11 4 -45 17 -75 28 -30 11 -74 27 -98 36 -106 40 -368 107 -512 131
-19 3 -42 7 -50 10 -8 2 -51 7 -94 10 -43 4 -88 9 -100 12 -24 5 -642 14 -647
9z"/>
<path d="M2076 5223 c-1 -1 -106 -3 -234 -4 -148 -2 -238 -6 -248 -13 -10 -8
-16 -35 -18 -94 -3 -77 -2 -82 18 -83 63 -3 3803 -4 3814 -1 8 3 12 32 12 102
l0 98 -1671 -2 c-919 0 -1671 -2 -1673 -3z"/>
<path d="M1576 4601 c-1 -3 -2 -508 -1 -1121 l0 -1115 675 0 c371 0 700 2 731
3 l57 4 23 81 c13 45 24 84 25 87 0 3 4 12 7 20 5 12 121 401 197 660 215 732
282 941 344 1063 55 109 85 130 180 125 69 -4 69 -4 117 -56 51 -56 72 -107
63 -157 -3 -17 -27 -111 -55 -210 -28 -99 -57 -202 -64 -230 -7 -27 -46 -160
-85 -295 -100 -343 -100 -343 -105 -360 -16 -64 -147 -494 -193 -637 -16 -51
-29 -94 -28 -95 0 0 441 -2 979 -3 l977 -2 0 249 c0 136 0 538 0 893 0 355 0
748 0 873 l0 228 -1921 0 c-1056 0 -1921 -2 -1923 -5z m2699 -613 c42 -16 175
-106 356 -241 138 -102 182 -136 309 -235 119 -93 237 -197 251 -221 43 -72
31 -158 -30 -213 -161 -148 -767 -605 -874 -660 -93 -47 -232 1 -265 92 -13
38 -15 113 -3 157 9 34 28 53 123 129 62 49 129 101 150 116 21 15 45 34 55
42 10 8 79 62 153 119 74 57 141 111 147 119 15 18 28 7 -282 240 -235 178
-313 246 -340 297 -45 87 -8 203 80 249 59 31 108 34 170 10z m-1387 -2 c62
-32 104 -108 105 -188 0 -84 -37 -120 -421 -412 -128 -97 -232 -180 -231 -184
0 -4 12 -16 27 -28 15 -11 108 -83 207 -159 259 -199 391 -312 405 -346 21
-49 7 -152 -24 -194 -51 -66 -161 -96 -231 -62 -59 29 -410 279 -564 403 -9 7
-74 59 -146 115 -180 142 -213 175 -226 222 -13 48 1 115 33 159 18 26 114
108 208 178 18 14 45 35 59 46 33 27 401 304 431 324 12 8 49 35 82 59 33 24
79 52 102 62 49 22 145 25 184 5z"/>
<path d="M2390 1833 c-139 -16 -213 -93 -213 -223 0 -70 22 -128 62 -164 62
-57 238 -70 337 -27 50 22 73 42 93 78 10 20 6 24 -45 47 -66 30 -73 31 -81
11 -15 -41 -117 -59 -173 -30 -48 25 -63 78 -40 140 21 56 134 67 198 19 l33
-26 52 22 c29 12 56 25 60 30 14 13 -66 86 -113 103 -45 16 -122 25 -170 20z"/>
<path d="M4529 1829 c-123 -18 -189 -93 -191 -217 -2 -139 95 -220 263 -220
157 0 244 66 256 195 7 75 -12 136 -59 182 -54 54 -156 77 -269 60z m130 -124
c75 -16 82 -143 11 -180 -58 -30 -175 -6 -185 39 -14 63 -8 94 21 121 33 31
77 37 153 20z"/>
<path d="M1794 1822 c-31 -3 -33 -5 -108 -200 -41 -108 -77 -203 -78 -211 -2
-11 11 -15 61 -15 71 -1 86 7 96 54 l7 30 95 0 95 0 15 -40 c9 -22 19 -40 22
-41 25 -5 134 -3 137 2 3 6 -148 404 -157 414 -6 5 -147 11 -185 7z m107 -177
l27 -75 -60 0 c-53 0 -59 2 -53 18 4 9 16 43 27 75 11 31 23 57 27 57 3 0 18
-34 32 -75z"/>
<path d="M2780 1822 l-55 -3 5 -212 5 -211 63 -1 c35 0 67 5 70 10 4 6 6 37 7
70 0 56 2 60 25 63 13 2 41 -1 62 -7 40 -12 60 -39 72 -98 4 -17 13 -33 19
-35 19 -6 147 -2 154 5 9 10 -46 134 -74 168 -13 15 -40 38 -59 50 l-36 22 88
88 89 89 -45 1 c-107 3 -145 -1 -157 -18 -36 -47 -118 -133 -128 -133 -8 0
-11 22 -11 66 2 93 4 91 -94 86z"/>
<path d="M3424 1822 c-12 -2 -24 -11 -27 -20 -3 -9 -39 -105 -81 -212 -42
-107 -76 -195 -76 -195 0 -4 141 4 148 9 5 3 13 22 16 41 l7 35 98 0 98 0 12
-40 c6 -22 15 -40 19 -41 40 -6 142 -2 142 5 0 14 -151 399 -161 410 -8 9
-150 14 -195 8z m117 -169 c13 -37 26 -71 27 -75 2 -4 -23 -8 -57 -8 l-60 0
16 48 c9 26 20 51 24 57 5 5 9 17 9 27 0 37 17 16 41 -49z"/>
<path d="M3850 1822 l-35 -3 5 -211 5 -212 68 -1 67 0 0 53 0 52 88 1 c115 1
140 6 183 34 42 27 65 91 56 155 -13 102 -67 128 -263 132 -76 2 -155 2 -174
0z m268 -121 c14 0 27 -11 34 -26 19 -43 -5 -57 -105 -61 l-86 -3 1 42 c0 23
2 44 3 47 3 5 79 5 153 1z"/>
<path d="M4955 1820 l-50 -5 0 -205 c0 -113 3 -207 7 -210 13 -10 335 -2 376
9 21 6 51 23 66 38 23 22 26 34 24 71 -3 48 -29 78 -77 87 -34 6 -34 9 4 29
42 23 61 65 49 108 -15 52 -50 70 -145 74 -171 8 -205 9 -254 4z m257 -118 c6
-6 8 -17 5 -25 -4 -11 -27 -15 -90 -16 l-84 -2 3 28 c1 15 2 28 3 29 7 6 155
-6 163 -14z m-14 -141 c26 -1 40 -27 24 -43 -15 -15 -171 -18 -174 -4 -4 30
-3 41 3 46 6 4 54 5 147 1z"/>
<path d="M1179 889 c82 -78 292 -238 421 -321 257 -165 507 -285 792 -382 103
-35 341 -99 410 -111 18 -3 40 -8 48 -10 8 -3 47 -9 85 -15 39 -5 81 -12 95
-14 207 -38 690 -38 924 -2 17 3 51 8 76 11 25 3 88 15 140 26 52 10 108 22
123 25 16 3 77 19 135 36 59 16 114 31 122 33 24 6 249 90 320 120 315 132
709 384 975 622 l59 53 -2400 0 -2399 -1 74 -70z"/>
</g>
</svg>
