<svg viewBox="0 0 81 81" fill="none" xmlns="http://www.w3.org/2000/svg">
    <circle cx="40.5" cy="40.5" r="37" stroke-width="7"/>
    <path d="M51.6921 24.5072C53.0768 23.1585 53.106 20.9426 51.7572 19.5579C50.4085 18.1732 48.1926 18.144 46.8079 19.4928L51.6921 24.5072ZM30 40.75L27.5579 38.2428L24.9838 40.75L27.5579 43.2572L30 40.75ZM46.8079 62.0072C48.1926 63.356 50.4085 63.3268 51.7572 61.9421C53.106 60.5574 53.0768 58.3415 51.6921 56.9928L46.8079 62.0072ZM46.8079 19.4928L27.5579 38.2428L32.4421 43.2572L51.6921 24.5072L46.8079 19.4928ZM27.5579 43.2572L46.8079 62.0072L51.6921 56.9928L32.4421 38.2428L27.5579 43.2572Z"
    />
</svg>
