<svg  viewBox="0 0 256 256" fill="none" xmlns="http://www.w3.org/2000/svg">
	<circle cx="128" cy="128" r="128" fill="currentColor"/>
	<path
		d="M199.25 67.917C202.078 67.917 203.492 67.9166 204.371 68.7949C205.25 69.6736 205.25 71.0886 205.25 73.917V182.083C205.25 184.911 205.25 186.326 204.371 187.205C203.492 188.083 202.078 188.083 199.25 188.083H56.75C53.9219 188.083 52.5076 188.083 51.6289 187.205C50.7502 186.326 50.75 184.911 50.75 182.083V73.917C50.75 71.0886 50.7502 69.6736 51.6289 68.7949C52.5076 67.9166 53.9219 67.917 56.75 67.917H199.25ZM183.66 99.4766C182.128 97.1789 179.024 96.5581 176.727 98.0898L128 130.574L79.2734 98.0898C76.9758 96.5581 73.8716 97.1789 72.3398 99.4766C70.8081 101.774 71.4289 104.878 73.7266 106.41L124.672 140.374C126.687 141.717 129.313 141.718 131.328 140.374L182.273 106.41C184.571 104.878 185.192 101.774 183.66 99.4766Z"
		fill="white"
	/>
</svg>
