<svg viewBox="0 0 24 24" fill="none" xmlns="http://www.w3.org/2000/svg">
    <circle cx="12" cy="12" r="12" fill="currentColor"/>
    <path d="M12.0001 6.16666C13.585 6.16666 13.7827 6.1725 14.4046 6.20166C15.0258 6.23083 15.4487 6.32825 15.8209 6.47291C16.2059 6.62108 16.5302 6.82175 16.8546 7.1455C17.1512 7.4371 17.3807 7.78984 17.5272 8.17916C17.6712 8.55075 17.7692 8.97425 17.7984 9.5955C17.8258 10.2173 17.8334 10.4151 17.8334 12C17.8334 13.5849 17.8276 13.7827 17.7984 14.4045C17.7692 15.0257 17.6712 15.4487 17.5272 15.8208C17.3811 16.2104 17.1516 16.5632 16.8546 16.8545C16.5629 17.151 16.2102 17.3805 15.8209 17.5271C15.4493 17.6712 15.0258 17.7692 14.4046 17.7983C13.7827 17.8257 13.585 17.8333 12.0001 17.8333C10.4152 17.8333 10.2174 17.8275 9.59558 17.7983C8.97433 17.7692 8.55141 17.6712 8.17925 17.5271C7.78977 17.3809 7.43697 17.1514 7.14558 16.8545C6.8489 16.5629 6.61937 16.2102 6.473 15.8208C6.32833 15.4492 6.23091 15.0257 6.20175 14.4045C6.17433 13.7827 6.16675 13.5849 6.16675 12C6.16675 10.4151 6.17258 10.2173 6.20175 9.5955C6.23091 8.97366 6.32833 8.55133 6.473 8.17916C6.61897 7.7896 6.84855 7.43677 7.14558 7.1455C7.43706 6.84872 7.78983 6.61917 8.17925 6.47291C8.55141 6.32825 8.97375 6.23083 9.59558 6.20166C10.2174 6.17425 10.4152 6.16666 12.0001 6.16666ZM12.0001 9.08333C11.2265 9.08333 10.4847 9.39062 9.93769 9.9376C9.39071 10.4846 9.08342 11.2264 9.08342 12C9.08342 12.7735 9.39071 13.5154 9.93769 14.0624C10.4847 14.6094 11.2265 14.9167 12.0001 14.9167C12.7736 14.9167 13.5155 14.6094 14.0625 14.0624C14.6095 13.5154 14.9167 12.7735 14.9167 12C14.9167 11.2264 14.6095 10.4846 14.0625 9.9376C13.5155 9.39062 12.7736 9.08333 12.0001 9.08333ZM15.7917 8.9375C15.7917 8.74411 15.7149 8.55864 15.5782 8.4219C15.4414 8.28515 15.256 8.20833 15.0626 8.20833C14.8692 8.20833 14.6837 8.28515 14.547 8.4219C14.4102 8.55864 14.3334 8.74411 14.3334 8.9375C14.3334 9.13088 14.4102 9.31635 14.547 9.4531C14.6837 9.58984 14.8692 9.66666 15.0626 9.66666C15.256 9.66666 15.4414 9.58984 15.5782 9.4531C15.7149 9.31635 15.7917 9.13088 15.7917 8.9375ZM12.0001 10.25C12.4642 10.25 12.9093 10.4344 13.2375 10.7626C13.5657 11.0907 13.7501 11.5359 13.7501 12C13.7501 12.4641 13.5657 12.9092 13.2375 13.2374C12.9093 13.5656 12.4642 13.75 12.0001 13.75C11.536 13.75 11.0908 13.5656 10.7626 13.2374C10.4345 12.9092 10.2501 12.4641 10.2501 12C10.2501 11.5359 10.4345 11.0907 10.7626 10.7626C11.0908 10.4344 11.536 10.25 12.0001 10.25Z"
          fill="white"/>
</svg>
