<svg viewBox="0 0 81 81" fill="none" xmlns="http://www.w3.org/2000/svg">
    <circle r="37" transform="matrix(-1 0 0 1 40.5 40.5)" stroke-width="7"/>
    <path
            d="M29.3079 24.5072C27.9232 23.1585 27.894 20.9426 29.2428 19.5579C30.5915 18.1732 32.8074 18.144 34.1921 19.4928L29.3079 24.5072ZM51 40.75L53.4421 38.2428L56.0162 40.75L53.4421 43.2572L51 40.75ZM34.1921 62.0072C32.8074 63.356 30.5915 63.3268 29.2428 61.9421C27.894 60.5574 27.9232 58.3415 29.3079 56.9928L34.1921 62.0072ZM34.1921 19.4928L53.4421 38.2428L48.5579 43.2572L29.3079 24.5072L34.1921 19.4928ZM53.4421 43.2572L34.1921 62.0072L29.3079 56.9928L48.5579 38.2428L53.4421 43.2572Z"
    />
</svg>
