<svg viewBox="0 0 24 24" fill="none" xmlns="http://www.w3.org/2000/svg">
    <circle cx="12" cy="12" r="12" fill="currentColor"/>
    <path d="M9.04842 7.91667C9.04827 8.22609 8.9252 8.52277 8.7063 8.74146C8.4874 8.96014 8.19059 9.08291 7.88117 9.08275C7.57175 9.0826 7.27507 8.95953 7.05638 8.74063C6.8377 8.52173 6.71493 8.22492 6.71509 7.9155C6.71524 7.60608 6.83831 7.3094 7.05721 7.09072C7.27611 6.87203 7.57292 6.74927 7.88234 6.74942C8.19176 6.74958 8.48844 6.87264 8.70713 7.09154C8.92581 7.31044 9.04858 7.60725 9.04842 7.91667ZM9.08342 9.94667H6.75009V17.25H9.08342V9.94667ZM12.7701 9.94667H10.4484V17.25H12.7468V13.4175C12.7468 11.2825 15.5293 11.0842 15.5293 13.4175V17.25H17.8334V12.6242C17.8334 9.025 13.7151 9.15917 12.7468 10.9267L12.7701 9.94667Z"
          fill="white"/>
</svg>
