<svg viewBox="0 0 256 256" fill="none" xmlns="http://www.w3.org/2000/svg">
    <circle cx="128" cy="128" r="126" fill="white"/>
    <path
            d="M128 256C198.709 256 256 198.709 256 128C256 57.2907 198.709 0 128 0C57.2907 0 0 57.2907 0 128C0 198.709 57.2907 256 128 256ZM58.5707 125.227L181.984 77.6427C187.712 75.5733 192.715 79.04 190.859 87.7013L190.869 87.6907L169.856 186.688C168.299 193.707 164.128 195.413 158.293 192.107L126.293 168.523L110.859 183.392C109.152 185.099 107.712 186.539 104.405 186.539L106.677 153.973L165.984 100.395C168.565 98.1227 165.408 96.8427 162.005 99.104L88.7147 145.248L57.12 135.392C50.2613 133.216 50.112 128.533 58.5707 125.227Z"
            fill="currentColor"/>
</svg>
