<svg viewBox="0 0 256 256" fill="none"
    xmlns="http://www.w3.org/2000/svg">
    <circle cx="128" cy="128" r="126" fill="white" />
    <path
        d="M128.032 0H127.968C57.392 0 0 57.408 0 128C0 156 9.024 181.952 24.368 203.024L8.416 250.576L57.616 234.848C77.856 248.256 102 256 128.032 256C198.608 256 256 198.576 256 128C256 57.424 198.608 0 128.032 0ZM202.512 180.752C199.424 189.472 187.168 196.704 177.392 198.816C170.704 200.24 161.968 201.376 132.56 189.184C94.944 173.6 70.72 135.376 68.832 132.896C67.024 130.416 53.632 112.656 53.632 94.288C53.632 75.92 62.96 66.976 66.72 63.136C69.808 59.984 74.912 58.544 79.808 58.544C81.392 58.544 82.816 58.624 84.096 58.688C87.856 58.848 89.744 59.072 92.224 65.008C95.312 72.448 102.832 90.816 103.728 92.704C104.64 94.592 105.552 97.152 104.272 99.632C103.072 102.192 102.016 103.328 100.128 105.504C98.24 107.68 96.448 109.344 94.56 111.68C92.832 113.712 90.88 115.888 93.056 119.648C95.232 123.328 102.752 135.6 113.824 145.456C128.112 158.176 139.696 162.24 143.84 163.968C146.928 165.248 150.608 164.944 152.864 162.544C155.728 159.456 159.264 154.336 162.864 149.296C165.424 145.68 168.656 145.232 172.048 146.512C175.504 147.712 193.792 156.752 197.552 158.624C201.312 160.512 203.792 161.408 204.704 162.992C205.6 164.576 205.6 172.016 202.512 180.752Z"
        fill="currentColor" />
</svg>
