<svg xmlns="http://www.w3.org/2000/svg" width="220" height="220" fill="none" viewBox="0 0 220 220">
<!-- SVG created with Arrow, by QuiverAI (https://quiver.ai) -->
  <path d="m217 116.3-3.74-1.99 2.96-10.56-0.87-6.4-5.45-2.52-6.74 0.92-1.93 1.95-3.25-2.53-4.05-1.36-6.67 1.13-2 2.15-3.39-3.3v-3.75l-5.22-1.29-5.3 1.29-1.5 5.61-1.86 1.57-5.66 2.3-2.53 6.93 0.7 8.51-2.54 1.34h-129.1l-3.46 2.08-0.34 6.3 3.8 4.02h133.1l2.28-1.2h45.51l6.28-1.65 1.99-4.84-1.01-4.71z" fill="#5f8" opacity=".2"/>
  <path d="m30.13 120.1v3.66l183.1 0.39v-4.05h-183.1z" fill="url(#paint0_linear_4_8270)"/>
  <path d="m5.14 97.57 6.77 9.39-6.91 9.17 3.93-0.04 6.41-9.2-6.95-9.36-3.25 0.04z" fill="url(#paint1_linear_4_8270)"/>
  <path d="m32.66 100.4c2.32-0.14 4.04-0.17 5.14-0.17 4.62 0 5.98 2.5 5.98 6.85v4.18h2.08v2.95h-4.9v-3.25c-1 2.4-2.56 3.49-4.85 3.49-3.25 0-5.36-1.83-5.36-4.53 0-2.84 2.32-3.91 6.16-3.91 1.23 0 2.41 0.1 3.84 0.3 0.03-2.43-1-3.31-4.14-3.31h-3.95v-2.6zm4.35 7.66c-2.15 0-3.25 0.5-3.25 1.7s0.95 2.1 2.55 2.1c2.43 0 3.83-1.7 4.34-3.65-1.46-0.1-2.54-0.15-3.64-0.15z" fill="#05222E"/>
  <path d="m49.61 111c2.29 0.3 4.27 0.45 5.9 0.45 2.9 0 3.1-1.1 3.1-1.85 0-0.9-1.15-1.4-3.33-1.85-3.56-0.8-5.95-1.5-5.95-3.75 0-2.5 1.43-3.8 5.88-3.8 1.78 0 3.55 0.1 5.28 0.35v2.75c-1.78-0.3-3.48-0.45-4.96-0.45-2.29 0-3.06 0.5-3.06 1.15 0 0.7 0.72 1 3.54 1.75 3.84 1.05 5.25 1.7 5.25 4.05 0 2.9-1.95 4.4-6 4.4-1.85 0-3.88-0.15-5.65-0.4v-2.8z" fill="#05222E"/>
  <path d="m65.18 93.88h3.1v12.83h2.45c2.42 0 4.19-2.7 4.59-6.45h3.05c-0.4 3.6-1.7 6.5-3.35 8.1l3.97 5.9h-3.47l-3.39-5.35h-3.85v5.35h-3.1v-20.38z" fill="#05222E"/>
  <path d="m83.11 100.4c2.32-0.14 4.05-0.17 5.15-0.17 4.62 0 5.97 2.5 5.97 6.85v4.18h2.08v2.95h-4.9v-3.25c-1 2.4-2.55 3.49-4.85 3.49-3.25 0-5.35-1.83-5.35-4.53 0-2.84 2.32-3.91 6.15-3.91 1.23 0 2.41 0.1 3.84 0.3 0.03-2.43-1-3.31-4.14-3.31h-3.95v-2.6zm4.35 7.66c-2.15 0-3.25 0.5-3.25 1.7s0.95 2.1 2.55 2.1c2.43 0 3.83-1.7 4.34-3.65-1.45-0.1-2.54-0.15-3.64-0.15z" fill="#05222E"/>
  <path d="m98.63 100.4h5.28v3.55c0.8-2.75 2.05-3.95 4.5-3.95 2.93 0 4.08 1.65 4.08 5.6v0.8h-2.95v-0.5c0-2.1-0.75-3.05-2.43-3.05-2.22 0-3.07 2.05-3.07 6.4v2.25h3.67v2.75h-9.58v-2.75h3v-8.4h-2.5v-2.7z" fill="#05222E"/>
  <path d="m121.3 100c5 0 6.5 3.9 6.5 7.25 0 3.6-1.82 7.2-6.5 7.2-4.67 0-6.55-3.55-6.55-7.2 0-3.35 1.55-7.25 6.55-7.25zm-0.05 11.55c2.85 0 3.65-2.65 3.65-4.45 0-2-0.8-4.35-3.6-4.35-2.72 0-3.64 2.3-3.64 4.35 0 1.95 0.92 4.45 3.59 4.45z" fill="#05222E"/>
  <path d="m130 100.4h3.4l4.43 11.25 4.15-11.25h2.97l-5.35 13.85h-4.02l-5.58-13.85z" fill="#05222E"/>
  <path d="m154.8 110.1c1.9 0 2.23 1.4 2.23 2.25 0 1.05-0.73 2.05-2.23 2.05-1.47 0-2.32-0.95-2.32-2.05 0-1.05 0.8-2.25 2.32-2.25z" fill="#05222E"/>
  <path d="m173.8 93.88h3.1v20.38h-2.8v-2.8c-1.12 2.25-2.73 3.1-4.93 3.1-4.45 0-5.6-3.7-5.6-7.2 0-3.7 1.45-7.35 5.7-7.35 2.35 0 3.75 0.9 4.53 2.7v-8.83zm-3.53 17.63c2.6 0 3.68-2.3 3.68-4.55 0-2.15-1-4.25-3.48-4.25-2.8 0-3.75 2.2-3.75 4.55 0 2.2 0.85 4.25 3.55 4.25z" fill="url(#paint2_linear_4_8270)"/>
  <path d="m187.8 100c5.11 0 6.58 4 6.58 7.55v1.05h-10.43c0.23 2.15 1.73 3.2 4.98 3.2 1.05 0 2.45-0.1 4.15-0.4v2.75c-1.62 0.25-3.22 0.4-4.6 0.4-5 0-7.52-2.8-7.52-7.15 0-3.55 2-7.4 6.84-7.4zm-3.9 6.5h7.36c-0.18-2.35-1.45-3.85-3.6-3.85-2.3 0-3.55 1.55-3.76 3.85z" fill="url(#paint3_linear_4_8270)"/>
  <path d="m197.4 100.4h3.4l4.42 11.25 4.15-11.25h2.98l-5.35 13.85h-4.03l-5.57-13.85z" fill="url(#paint4_linear_4_8270)"/>
  <defs>
    <linearGradient id="paint0_linear_4_8270" x1="30.12" x2="213.2" y1="122" y2="122" gradientUnits="userSpaceOnUse">
      <stop stop-color="#00363A" offset="0"/>
      <stop stop-color="#00363A" offset=".7448"/>
      <stop stop-color="#547A6F" offset="1"/>
    </linearGradient>
    <linearGradient id="paint1_linear_4_8270" x1="5" x2="15.34" y1="106.9" y2="106.9" gradientUnits="userSpaceOnUse">
      <stop stop-color="#547A6F" offset="0"/>
      <stop stop-color="#325651" offset="1"/>
    </linearGradient>
    <linearGradient id="paint2_linear_4_8270" x1="163.6" x2="176.9" y1="104.2" y2="104.2" gradientUnits="userSpaceOnUse">
      <stop stop-color="#547A6F" offset="0"/>
      <stop stop-color="#325651" offset="1"/>
    </linearGradient>
    <linearGradient id="paint3_linear_4_8270" x1="180.9" x2="194.3" y1="107.3" y2="107.3" gradientUnits="userSpaceOnUse">
      <stop stop-color="#547A6F" offset="0"/>
      <stop stop-color="#325651" offset="1"/>
    </linearGradient>
    <linearGradient id="paint4_linear_4_8270" x1="197.4" x2="212.4" y1="107.3" y2="107.3" gradientUnits="userSpaceOnUse">
      <stop stop-color="#547A6F" offset="0"/>
      <stop stop-color="#325651" offset="1"/>
    </linearGradient>
  </defs>
</svg>