<svg xmlns="http://www.w3.org/2000/svg" width="200" height="200" fill="none" viewBox="0 0 200 200">
<!-- SVG created with Arrow, by QuiverAI (https://quiver.ai) -->
  <path d="m194.4 100c0 51.5-43.24 94.16-94.74 94.16-52.27 0-94-41.73-94-94 0-51.18 41.54-94.16 94.38-94.17 51.96 0 94.36 42.05 94.36 94.01z" fill="url(#paint0_linear_909_10911)"/>
  <path d="m129.5 114.1c3.51-3.04 6.32-4.09 12.08-3.07 1.81-10.4 10.29-14.59 17.41-13.89-0.4-24.23-16.3-45.38-40.36-53.46l-0.22-5.72c26.15 8.21 46.26 32.93 46.26 61.37 0 33.56-27.11 65.34-64.87 65.34-34.76 0-64.51-27.48-64.51-64.52 0-28.61 17.75-52.96 44.63-62.05l0.92 4.81c-22.62 8.27-40.35 27.92-40.87 53.97 7.46-0.47 15.56 4.97 17.12 13.61 5.58-1.8 9.71 0.4 12.61 3.26l-1.64 2.3-9.45 17.43c-1.9 3.6 0.2 7.57 3.49 9.25l30.12 15.91c5.27 2.57 10.98 1.56 14.32-0.13l31.58-16.14c4.54-2.43 5.2-6.3 2.67-10.08l-7.22-15.18-4.07-3.01z" fill="url(#paint1_linear_909_10911)"/>
  <path d="m117.2 23.62c31.58 7.14 61.1 35.51 61.1 75.33 0 8.09-1.22 15.18-3.02 23.37l-4-0.91c2.31-8 3.36-13.93 3.36-22.31 0-34.06-25.73-63.27-56.34-70.53l-1.72-4.95h0.62z" fill="url(#paint2_linear_909_10911)"/>
  <path d="m82.77 23.62c-31.58 7.14-62.34 35.51-62.34 75.33 0 8.09 1.21 14.87 3.01 23.06l4.37-0.9c-2.3-8-2.73-13.63-2.73-22.01 0-33.01 24.74-61.82 55.9-71.07l2.14-4.41h-0.35z" fill="url(#paint3_linear_909_10911)"/>
  <path d="m25.26 121.7c-1.65-6.81-2.9-14.63-2.9-22.67 0-35.97 26.32-66 59.49-73.94l-0.66 1.63c-31.16 9.24-56.12 37.65-56.12 70.66 0 7.7 0.99 14.74 2.74 23.72l-2.55 0.6z" fill="url(#paint4_linear_909_10911)"/>
  <path d="m119.1 26.64c29.88 8.09 54.02 35.99 54.02 70.05 0 7.74-0.96 14.37-2.57 23.23l3.57 1c2.08-7.77 2.68-13.94 2.68-21.97 0-35.97-26.97-66.17-59.04-74.16l1.34 1.85z" fill="url(#paint5_linear_909_10911)"/>
  <path d="m21.57 136.5 15.74-1.46 1.54 2.81-8.79 13.52-1.9-3.46 1.95-2.96-3.84-6.13-3.54 0.4-1.16-2.72zm8.5 1.99 2.75 4.45 4.01-5.34-6.76 0.89z" fill="#fff"/>
  <path d="m33.72 153.7 2.67-1.55c0.71 2.82 1.87 4.65 3.37 5.99 1.36 1.24 2.62 1.43 3.32 0.63 1.96-2.22-4.42-7.37-1.3-10.92 1.99-2.29 5.23-1.49 7.66 0.85 1.47 1.42 2.44 3.07 2.87 5.08l-2.53 1.42c-0.56-2.02-1.41-3.6-2.5-4.63-1.16-1.09-2.26-1.29-2.92-0.54-1.95 2.3 4.53 7.48 1.35 11.11-1.97 2.36-5.26 1.48-7.75-0.89-1.81-1.71-3.22-3.58-4.24-6.55z" fill="#fff"/>
  <path d="m53.81 155.3 3 1.97-3.97 6.32 8.94-2.75 3.64 2.38-8.87 2.37-0.02 9.37-3.44-2.29 0.29-7.28-2.99 0.88-2.07 3.33-3-1.97 8.49-12.33z" fill="#fff"/>
  <path d="m70.77 165.4 3.8 1.44 0.79 16.05-3.55-1.36-0.13-3.57-6.4-2.51-2.4 2.76-3.46-1.35 11.35-11.46zm0.76 9.58 0.1-6.56-4.47 4.99 4.37 1.57z" fill="#fff"/>
  <path d="m82.91 169.4 7.02 0.95c4.28 0.58 5.34 3.65 4.93 6.3-0.32 1.97-1.48 3.3-3.44 3.99l2.29 5.26-3.86-0.53-1.89-4.57-3.53-0.49-0.68 4.18-3.53-0.49 2.69-14.6zm5.67 8.48c1.96 0.28 2.84-1.05 3.04-2.26 0.2-1.2-0.31-2.71-2.16-2.98l-3.64-0.51-0.94 5.25 3.7 0.5z" fill="#fff"/>
  <path d="m97.12 178.5c-0.34-4.91 2.93-8.27 8.1-8.18 5.49 0.07 8.46 3.26 8.39 7.97-0.06 4.78-3.4 7.81-8.38 7.64-4.98-0.18-7.8-3.15-8.11-7.43zm12.99-0.38c0.07-3.1-1.73-4.8-4.77-4.87-3.23-0.1-5.12 1.69-5.12 4.92 0 2.9 1.69 4.84 4.82 4.94 3.06 0.07 4.95-1.79 5.07-4.99z" fill="#fff"/>
  <path d="m114.4 169.8 3.68-1.02 7.05 9.52 1.73-12.16 3.41-0.95-2.6 16.77-3.71 1.13-9.56-13.29z" fill="#fff"/>
  <path d="m134.4 176c-0.76-1.45 0.2-2.86 1.4-3.27 1.16-0.4 2.38 0.33 2.9 1.5 0.55 1.29-0.29 2.65-1.45 3.05-1.21 0.41-2.18-0.1-2.85-1.28z" fill="#fff"/>
  <path d="m135.3 161.8 5.69-4.06c4.65-3.29 9.01-1.04 11.23 2.28 2.5 3.84 1.51 8-2.49 10.82l-5.76 4.08-8.67-13.12zm12.52 6.95c2.9-2.11 2.93-4.93 1.24-7.43-1.62-2.57-4.22-3.03-6.69-1.34l-3.23 2.34 5.77 8.49 2.91-2.06z" fill="#fff"/>
  <path d="m149.1 151.7 8.03-8.03 2.19 1.85-5.61 6.09 2.69 2.62 5.06-5.42 2.19 1.85-4.92 5.49 2.5 2.47 5.49-6.71 2.03 2.19-8.38 8.38-11.27-10.78z" fill="#fff"/>
  <path d="m157.8 142.5 2.18-3.17 11.58 1.29-6.58-9.45 1.95-2.97 8.31 13.52-1.75 3.33-15.69-2.55z" fill="#fff"/>
  <path d="m137.3 136.5-34.46 19.34c-2.12 1-6.06 0.84-7.56 0l-31.56-17.17c-1.64-0.89-1.76-2.49-0.93-4.03l5.45-11.13 26.71 15.31c2.53 1.33 6.07 1.12 8.44 0l28.25-15.01 6.21 10.53c0.84 1.33 0.23 1.78-0.55 2.16z" fill="url(#paint6_linear_909_10911)" stroke="#000F3B" stroke-miterlimit="10" stroke-width="3.047"/>
  <path d="m102.9 155.8c-1.82 0.81-5.91 0.8-7.15 0l0.7-15.54-2.14-1.64c2.31 1.16 5.29 1.16 7.83 0l-0.9 4.23 1.66 12.95z" fill="url(#paint7_linear_909_10911)"/>
  <path d="m137.3 136.5-2.27 1.35-5.04-14.19 1.64-0.61 6.21 10.54c0.84 1.33 0.54 2.28-0.54 2.91z" fill="#77949E"/>
  <path d="m62.82 136.8 5.1-11.81 0.61-1.32 0.81 1.01-6.11 13.19-0.41-1.07z" fill="#CAD5DD"/>
  <path d="m39.99 99.1c7.34-0.65 15.88 5.13 16.77 15.97 4.55-2.41 8.3-2.06 11.57 0.24l1.39-1.54c-2.9-2.86-7.03-5.06-12.61-3.26-1.56-8.64-9.66-14.08-17.12-13.61v2.2z" fill="url(#paint8_linear_909_10911)"/>
  <path d="m159 99.4c-7.34-0.65-14.94 4.83-15.14 15.82-3.94-2.11-8.08-2.61-12.36-0.6l-1.44-1.21c3.51-3.04 5.77-3.69 11.53-2.67 1.81-10.4 10.29-14.59 17.41-13.89v2.55z" fill="url(#paint9_linear_909_10911)"/>
  <path d="m100 11.72c-5.87 5.55-16.57 18.27-16.57 39.89 0 11.97 3.64 23.35 5.6 28.44h20.72c2.36-5.34 6.26-14.91 6.26-29.77 0-13.05-5.2-27.6-16.01-38.56z" fill="url(#paint10_linear_909_10911)" stroke="#002B50" stroke-miterlimit="10" stroke-width="2.266"/>
  <path d="m108.8 26.06c-2.9-5.87-6.39-11.07-8.81-13.84-3.64 3.79-7.28 8.69-10.04 13.84h18.85z" fill="url(#paint11_linear_909_10911)" stroke="#002B50" stroke-miterlimit="10" stroke-width="1.523"/>
  <path d="m97.19 14.74c-2.23 2.64-4.67 7.43-6.18 10.87l3.64 0.1c0.46-3.59 1.74-8.03 2.54-10.97z" fill="#D6FFFE"/>
  <path d="m109.8 29.03h-2.53c2.53 6.22 4.19 13.15 4.19 20.58 0 8.34-2.32 18.21-5.1 28.47l2.83-0.15c2.67-5.45 5.76-14.81 5.76-27.86 0-8.09-1.98-15.08-5.15-21.04z" fill="url(#paint12_linear_909_10911)"/>
  <path d="m100 35.91c-6.19 0-10.1 5.05-10.1 10.1 0 5.4 4.48 9.09 9.78 9.09 5.45 0 9.3-4.89 9.3-9.54 0-5.05-4.07-9.65-8.98-9.65z" fill="#002B50"/>
  <path d="m99.63 38.88c-4.72 0-7.41 3.71-7.41 7.18 0 3.95 3.23 6.56 7.11 6.56 4.31 0 7.08-3.66 7.08-7 0-3.54-2.98-6.74-6.78-6.74z" fill="url(#paint13_linear_909_10911)"/>
  <path d="m96.91 41.12c-1.85 0.86-2.19 2.75-1.75 3.49 0.66 1.14 2 1 2.75 0.5 1.21-0.84 1.98-2 1.62-3.08-0.41-1.16-1.72-1.41-2.62-0.91z" fill="#ABFFFE"/>
  <path d="m119.3 61.06c7.79 6.91 9.38 15.35 6.09 28.4-2.77-5.87-6.95-9.15-10.39-10.67l4.3-17.73z" fill="url(#paint14_linear_909_10911)" stroke="#002B50" stroke-miterlimit="10" stroke-width="1.523"/>
  <path d="m80.98 61.06c-7.79 6.91-9.38 15.35-6.09 27.45 2.77-5.43 6.19-7.9 10.02-9.52l-3.93-17.93z" fill="url(#paint15_linear_909_10911)" stroke="#002B50" stroke-miterlimit="10" stroke-width="1.523"/>
  <path d="m91.66 81.52h2.47l0.98 4.55h-4.5l-0.92-4.55h1.97z" fill="url(#paint16_linear_909_10911)" stroke="#002B50" stroke-miterlimit="10" stroke-width="1.523"/>
  <path d="m107.1 81.52h2.47l-1.2 4.55h-4.23l0.61-4.55h2.35z" fill="url(#paint17_linear_909_10911)" stroke="#002B50" stroke-miterlimit="10" stroke-width="1.523"/>
  <path d="m107.7 88.6h-3.94c-1 4.66-2.78 8.66-4.09 10.2-1.96-2.83-3.46-6.89-4.41-10.2h-3.45c-0.61 8.59-2.49 17.53-5.46 20.08l-13.4 8.14c-2.87 1.71-2.63 4.38 0.71 6.1l22.3 12.21c2.5 1.21 4.82 1.16 7.35-0.21l24.56-12.1c2.18-1.11 2.23-4.39-0.2-5.6l-14.56-8.44c-2.97-2.67-4.59-10.86-5.41-20.18z" fill="url(#paint18_linear_909_10911)" stroke="#002B50" stroke-miterlimit="10" stroke-width="1.523"/>
  <path d="m106.9 90.6-1.21 16.82-2.98-9.43-3.29 25.54-3.94-26.7-2.57 10.79-0.5-17.42 3.29 8.09 4.07 2.82 7.13-10.51z" fill="#D6FFFE"/>
  <path d="m126.8 119.5-24.81 14.15c-2.26 1.05-4.09 0.8-6-0.2l-22.6-13.3c-0.71-0.55-0.61-1.6 0.5-2.1l10.83-5.96 2.58-3.64-3.13 3.04-11.04 6.26c-1.5 0.95-1.1 2.71 0.76 3.71l22.25 12.49c2.36 1.16 4.58 1.01 6.76-0.1l24-12.39c1.66-0.9 1.36-2.06-0.1-1.96z" fill="url(#paint19_linear_909_10911)"/>
  <path d="m100 60.15c-4.29 4.99-5.25 13.59-4.44 22.58 0.5 5 2.26 10.44 4.12 13.62 2.83-6.12 4.2-14.22 4.04-21.14-0.15-5.4-1.81-11.38-3.72-15.06z" fill="#002B50"/>
  <path d="m99.71 66.72c-2.63 3.34-3.11 9.75-2.6 15.81 0.3 3.64 1.21 7.18 2.47 9.81 1.72-4.55 2.53-10.16 2.43-15.11-0.15-3.74-1.16-8.02-2.3-10.51z" fill="url(#paint20_linear_909_10911)"/>
  <defs>
    <linearGradient id="paint0_linear_909_10911" x1="46.88" x2="152.3" y1="17.19" y2="183.6" gradientUnits="userSpaceOnUse">
      <stop stop-color="#28678F" offset="0"/>
      <stop stop-color="#14335E" offset=".276"/>
      <stop stop-color="#13234F" offset=".6667"/>
      <stop stop-color="#0A0A30" offset="1"/>
    </linearGradient>
    <linearGradient id="paint1_linear_909_10911" x1="100.2" x2="100.2" y1="37.98" y2="164.7" gradientUnits="userSpaceOnUse">
      <stop stop-color="#46FFFA" offset="0"/>
      <stop stop-color="#20D2D2" offset=".51"/>
      <stop stop-color="#065295" offset="1"/>
    </linearGradient>
    <linearGradient id="paint2_linear_909_10911" x1="147.5" x2="147.5" y1="23.62" y2="122.3" gradientUnits="userSpaceOnUse">
      <stop stop-color="#94A4B2" offset="0"/>
      <stop stop-color="#F1FEFF" offset=".51"/>
      <stop stop-color="#73899B" offset="1"/>
    </linearGradient>
    <linearGradient id="paint3_linear_909_10911" x1="51.8" x2="51.8" y1="23.62" y2="122" gradientUnits="userSpaceOnUse">
      <stop stop-color="#F1FEFF" offset="0"/>
      <stop stop-color="#B1C7D6" offset=".4844"/>
      <stop stop-color="#607788" offset="1"/>
    </linearGradient>
    <linearGradient id="paint4_linear_909_10911" x1="52.25" x2="52.25" y1="25.1" y2="121.7" gradientUnits="userSpaceOnUse">
      <stop stop-color="#F1FEFF" offset="0"/>
      <stop stop-color="#B1C7D6" offset=".4844"/>
      <stop stop-color="#607788" offset="1"/>
    </linearGradient>
    <linearGradient id="paint5_linear_909_10911" x1="146.8" x2="146.8" y1="24.79" y2="120.9" gradientUnits="userSpaceOnUse">
      <stop stop-color="#94A4B2" offset="0"/>
      <stop stop-color="#F1FEFF" offset=".51"/>
      <stop stop-color="#73899B" offset="1"/>
    </linearGradient>
    <linearGradient id="paint6_linear_909_10911" x1="61.99" x2="138.4" y1="139.8" y2="139.8" gradientUnits="userSpaceOnUse">
      <stop stop-color="#8396A5" offset="0"/>
      <stop stop-color="#F1FEFF" offset=".4844"/>
      <stop stop-color="#627A8A" offset="1"/>
    </linearGradient>
    <linearGradient id="paint7_linear_909_10911" x1="95.72" x2="102.9" y1="147.5" y2="147.5" gradientUnits="userSpaceOnUse">
      <stop stop-color="#8396A5" offset="0"/>
      <stop stop-color="#F1FEFF" offset=".4844"/>
      <stop stop-color="#627A8A" offset="1"/>
    </linearGradient>
    <linearGradient id="paint8_linear_909_10911" x1="54.86" x2="54.86" y1="96.82" y2="115.3" gradientUnits="userSpaceOnUse">
      <stop stop-color="#46FFFA" offset="0"/>
      <stop stop-color="#3796AA" offset="1"/>
    </linearGradient>
    <linearGradient id="paint9_linear_909_10911" x1="144.5" x2="144.5" y1="96.74" y2="115.2" gradientUnits="userSpaceOnUse">
      <stop stop-color="#46FFFA" offset="0"/>
      <stop stop-color="#3796AA" offset="1"/>
    </linearGradient>
    <linearGradient id="paint10_linear_909_10911" x1="99.72" x2="99.72" y1="11.72" y2="80.05" gradientUnits="userSpaceOnUse">
      <stop stop-color="#F1FEFF" offset="0"/>
      <stop stop-color="#94A4B2" offset=".4844"/>
      <stop stop-color="#607788" offset="1"/>
    </linearGradient>
    <linearGradient id="paint11_linear_909_10911" x1="99.88" x2="99.88" y1="11.72" y2="26.05" gradientUnits="userSpaceOnUse">
      <stop stop-color="#46FFFA" offset="0"/>
      <stop stop-color="#20D2D2" offset=".51"/>
      <stop stop-color="#065295" offset="1"/>
    </linearGradient>
    <linearGradient id="paint12_linear_909_10911" x1="111.1" x2="111.1" y1="29.03" y2="78.08" gradientUnits="userSpaceOnUse">
      <stop stop-color="#F1FEFF" offset="0"/>
      <stop stop-color="#94A4B2" offset=".4844"/>
      <stop stop-color="#607788" offset="1"/>
    </linearGradient>
    <linearGradient id="paint13_linear_909_10911" x1="99.31" x2="99.31" y1="38.88" y2="52.62" gradientUnits="userSpaceOnUse">
      <stop stop-color="#46FFFA" offset="0"/>
      <stop stop-color="#20D2D2" offset=".51"/>
      <stop stop-color="#065295" offset="1"/>
    </linearGradient>
    <linearGradient id="paint14_linear_909_10911" x1="121.8" x2="121.8" y1="61.06" y2="89.46" gradientUnits="userSpaceOnUse">
      <stop stop-color="#28B2CF" offset="0"/>
      <stop stop-color="#007199" offset="1"/>
    </linearGradient>
    <linearGradient id="paint15_linear_909_10911" x1="78.51" x2="78.51" y1="61.06" y2="88.51" gradientUnits="userSpaceOnUse">
      <stop stop-color="#28B2CF" offset="0"/>
      <stop stop-color="#007199" offset="1"/>
    </linearGradient>
    <linearGradient id="paint16_linear_909_10911" x1="92.4" x2="92.4" y1="81.52" y2="86.07" gradientUnits="userSpaceOnUse">
      <stop stop-color="#F1FEFF" offset="0"/>
      <stop stop-color="#94A4B2" offset=".4844"/>
      <stop stop-color="#607788" offset="1"/>
    </linearGradient>
    <linearGradient id="paint17_linear_909_10911" x1="106.9" x2="106.9" y1="81.52" y2="86.07" gradientUnits="userSpaceOnUse">
      <stop stop-color="#F1FEFF" offset="0"/>
      <stop stop-color="#94A4B2" offset=".4844"/>
      <stop stop-color="#607788" offset="1"/>
    </linearGradient>
    <linearGradient id="paint18_linear_909_10911" x1="99.94" x2="99.94" y1="88.6" y2="136" gradientUnits="userSpaceOnUse">
      <stop stop-color="#46FFFA" offset="0"/>
      <stop stop-color="#20D2D2" offset=".51"/>
      <stop stop-color="#065295" offset="1"/>
    </linearGradient>
    <linearGradient id="paint19_linear_909_10911" x1="99.98" x2="99.98" y1="108.4" y2="134.7" gradientUnits="userSpaceOnUse">
      <stop stop-color="#46FFFA" offset="0"/>
      <stop stop-color="#3796AA" offset="1"/>
    </linearGradient>
    <linearGradient id="paint20_linear_909_10911" x1="99.56" x2="99.56" y1="66.72" y2="92.34" gradientUnits="userSpaceOnUse">
      <stop stop-color="#46FFFA" offset="0"/>
      <stop stop-color="#20D2D2" offset=".51"/>
      <stop stop-color="#065295" offset="1"/>
    </linearGradient>
  </defs>
</svg>